<mxfile host="app.diagrams.net" modified="2023-01-17T11:36:06.882Z" agent="5.0 (Windows NT 10.0; Win64; x64) AppleWebKit/537.36 (KHTML, like Gecko) Chrome/109.0.0.0 Safari/537.36" etag="40euCrCp0AH9QSxFjr_m" version="20.8.5" type="github">
  <diagram id="C5RBs43oDa-KdzZeNtuy" name="Page-1">
    <mxGraphModel dx="1434" dy="1925" grid="1" gridSize="10" guides="1" tooltips="1" connect="1" arrows="1" fold="1" page="1" pageScale="1" pageWidth="827" pageHeight="1169" math="0" shadow="0">
      <root>
        <mxCell id="WIyWlLk6GJQsqaUBKTNV-0" />
        <mxCell id="WIyWlLk6GJQsqaUBKTNV-1" parent="WIyWlLk6GJQsqaUBKTNV-0" />
        <mxCell id="JSDUIZoFdhttjqrRhheN-36" style="edgeStyle=orthogonalEdgeStyle;rounded=0;orthogonalLoop=1;jettySize=auto;html=1;exitX=0.5;exitY=1;exitDx=0;exitDy=0;fontSize=15;" edge="1" parent="WIyWlLk6GJQsqaUBKTNV-1" source="JSDUIZoFdhttjqrRhheN-16" target="JSDUIZoFdhttjqrRhheN-35">
          <mxGeometry relative="1" as="geometry" />
        </mxCell>
        <mxCell id="JSDUIZoFdhttjqrRhheN-16" value="&lt;b&gt;&lt;font style=&quot;font-size: 15px;&quot;&gt;FxGlue.js&lt;/font&gt;&lt;/b&gt;" style="rounded=0;whiteSpace=wrap;html=1;verticalAlign=top;spacingTop=7;" vertex="1" parent="WIyWlLk6GJQsqaUBKTNV-1">
          <mxGeometry x="120" y="280" width="480" height="470" as="geometry" />
        </mxCell>
        <mxCell id="JSDUIZoFdhttjqrRhheN-13" style="edgeStyle=orthogonalEdgeStyle;rounded=0;orthogonalLoop=1;jettySize=auto;html=1;exitX=0.5;exitY=1;exitDx=0;exitDy=0;entryX=0.5;entryY=0;entryDx=0;entryDy=0;" edge="1" parent="WIyWlLk6GJQsqaUBKTNV-1" source="JSDUIZoFdhttjqrRhheN-0" target="JSDUIZoFdhttjqrRhheN-10">
          <mxGeometry relative="1" as="geometry" />
        </mxCell>
        <mxCell id="JSDUIZoFdhttjqrRhheN-0" value="Create a new Project" style="rounded=1;whiteSpace=wrap;html=1;" vertex="1" parent="WIyWlLk6GJQsqaUBKTNV-1">
          <mxGeometry x="294" y="-40" width="120" height="70" as="geometry" />
        </mxCell>
        <mxCell id="JSDUIZoFdhttjqrRhheN-33" style="edgeStyle=orthogonalEdgeStyle;rounded=0;orthogonalLoop=1;jettySize=auto;html=1;exitX=0.5;exitY=1;exitDx=0;exitDy=0;entryX=0;entryY=0.5;entryDx=0;entryDy=0;fontSize=15;" edge="1" parent="WIyWlLk6GJQsqaUBKTNV-1" source="JSDUIZoFdhttjqrRhheN-4" target="JSDUIZoFdhttjqrRhheN-25">
          <mxGeometry relative="1" as="geometry" />
        </mxCell>
        <mxCell id="JSDUIZoFdhttjqrRhheN-4" value="Add Media File&amp;nbsp;&lt;br&gt;(Source Layer)" style="whiteSpace=wrap;html=1;rounded=1;" vertex="1" parent="WIyWlLk6GJQsqaUBKTNV-1">
          <mxGeometry x="180" y="190" width="120" height="60" as="geometry" />
        </mxCell>
        <mxCell id="JSDUIZoFdhttjqrRhheN-34" style="edgeStyle=orthogonalEdgeStyle;rounded=0;orthogonalLoop=1;jettySize=auto;html=1;exitX=0.5;exitY=1;exitDx=0;exitDy=0;entryX=1;entryY=0.5;entryDx=0;entryDy=0;fontSize=15;" edge="1" parent="WIyWlLk6GJQsqaUBKTNV-1" source="JSDUIZoFdhttjqrRhheN-6" target="JSDUIZoFdhttjqrRhheN-25">
          <mxGeometry relative="1" as="geometry" />
        </mxCell>
        <mxCell id="JSDUIZoFdhttjqrRhheN-6" value="Add Effects/Filter" style="whiteSpace=wrap;html=1;rounded=1;" vertex="1" parent="WIyWlLk6GJQsqaUBKTNV-1">
          <mxGeometry x="407" y="190" width="120" height="60" as="geometry" />
        </mxCell>
        <mxCell id="JSDUIZoFdhttjqrRhheN-11" style="edgeStyle=orthogonalEdgeStyle;rounded=0;orthogonalLoop=1;jettySize=auto;html=1;entryX=0.5;entryY=0;entryDx=0;entryDy=0;" edge="1" parent="WIyWlLk6GJQsqaUBKTNV-1" source="JSDUIZoFdhttjqrRhheN-10" target="JSDUIZoFdhttjqrRhheN-4">
          <mxGeometry relative="1" as="geometry" />
        </mxCell>
        <mxCell id="JSDUIZoFdhttjqrRhheN-12" style="edgeStyle=orthogonalEdgeStyle;rounded=0;orthogonalLoop=1;jettySize=auto;html=1;exitX=1;exitY=0.5;exitDx=0;exitDy=0;entryX=0.5;entryY=0;entryDx=0;entryDy=0;" edge="1" parent="WIyWlLk6GJQsqaUBKTNV-1" source="JSDUIZoFdhttjqrRhheN-10" target="JSDUIZoFdhttjqrRhheN-6">
          <mxGeometry relative="1" as="geometry" />
        </mxCell>
        <mxCell id="JSDUIZoFdhttjqrRhheN-10" value="Add Layer" style="rhombus;whiteSpace=wrap;html=1;" vertex="1" parent="WIyWlLk6GJQsqaUBKTNV-1">
          <mxGeometry x="301" y="90" width="106" height="100" as="geometry" />
        </mxCell>
        <mxCell id="JSDUIZoFdhttjqrRhheN-14" value="Source" style="text;html=1;align=center;verticalAlign=middle;resizable=0;points=[];autosize=1;strokeColor=none;fillColor=none;" vertex="1" parent="WIyWlLk6GJQsqaUBKTNV-1">
          <mxGeometry x="241" y="120" width="60" height="30" as="geometry" />
        </mxCell>
        <mxCell id="JSDUIZoFdhttjqrRhheN-15" value="Effects" style="text;html=1;align=center;verticalAlign=middle;resizable=0;points=[];autosize=1;strokeColor=none;fillColor=none;" vertex="1" parent="WIyWlLk6GJQsqaUBKTNV-1">
          <mxGeometry x="407" y="115" width="60" height="30" as="geometry" />
        </mxCell>
        <mxCell id="JSDUIZoFdhttjqrRhheN-18" value="Initialize fxGlue and create a webGl Canvas&amp;nbsp;" style="shape=callout;whiteSpace=wrap;html=1;perimeter=calloutPerimeter;" vertex="1" parent="WIyWlLk6GJQsqaUBKTNV-1">
          <mxGeometry x="337" y="-120" width="153" height="80" as="geometry" />
        </mxCell>
        <mxCell id="JSDUIZoFdhttjqrRhheN-31" style="edgeStyle=orthogonalEdgeStyle;rounded=0;orthogonalLoop=1;jettySize=auto;html=1;exitX=0.5;exitY=1;exitDx=0;exitDy=0;" edge="1" parent="WIyWlLk6GJQsqaUBKTNV-1" source="JSDUIZoFdhttjqrRhheN-19" target="JSDUIZoFdhttjqrRhheN-24">
          <mxGeometry relative="1" as="geometry" />
        </mxCell>
        <mxCell id="JSDUIZoFdhttjqrRhheN-19" value="Register Source as texture in WebGLRenderingContext" style="rounded=1;whiteSpace=wrap;html=1;" vertex="1" parent="WIyWlLk6GJQsqaUBKTNV-1">
          <mxGeometry x="150.5" y="545" width="180" height="60" as="geometry" />
        </mxCell>
        <mxCell id="JSDUIZoFdhttjqrRhheN-32" style="edgeStyle=orthogonalEdgeStyle;rounded=0;orthogonalLoop=1;jettySize=auto;html=1;exitX=0.5;exitY=1;exitDx=0;exitDy=0;" edge="1" parent="WIyWlLk6GJQsqaUBKTNV-1" source="JSDUIZoFdhttjqrRhheN-20" target="JSDUIZoFdhttjqrRhheN-24">
          <mxGeometry relative="1" as="geometry" />
        </mxCell>
        <mxCell id="JSDUIZoFdhttjqrRhheN-20" value="Register effects as program in WebGLRenderingContext" style="rounded=1;whiteSpace=wrap;html=1;" vertex="1" parent="WIyWlLk6GJQsqaUBKTNV-1">
          <mxGeometry x="377.5" y="545" width="180" height="60" as="geometry" />
        </mxCell>
        <mxCell id="JSDUIZoFdhttjqrRhheN-29" style="edgeStyle=orthogonalEdgeStyle;rounded=0;orthogonalLoop=1;jettySize=auto;html=1;exitX=0.5;exitY=1;exitDx=0;exitDy=0;entryX=0.5;entryY=0;entryDx=0;entryDy=0;" edge="1" parent="WIyWlLk6GJQsqaUBKTNV-1" source="JSDUIZoFdhttjqrRhheN-21" target="JSDUIZoFdhttjqrRhheN-19">
          <mxGeometry relative="1" as="geometry" />
        </mxCell>
        <mxCell id="JSDUIZoFdhttjqrRhheN-21" value="GlueTexture" style="rounded=1;whiteSpace=wrap;html=1;" vertex="1" parent="WIyWlLk6GJQsqaUBKTNV-1">
          <mxGeometry x="181" y="455" width="120" height="60" as="geometry" />
        </mxCell>
        <mxCell id="JSDUIZoFdhttjqrRhheN-30" style="edgeStyle=orthogonalEdgeStyle;rounded=0;orthogonalLoop=1;jettySize=auto;html=1;exitX=0.5;exitY=1;exitDx=0;exitDy=0;entryX=0.5;entryY=0;entryDx=0;entryDy=0;" edge="1" parent="WIyWlLk6GJQsqaUBKTNV-1" source="JSDUIZoFdhttjqrRhheN-22" target="JSDUIZoFdhttjqrRhheN-20">
          <mxGeometry relative="1" as="geometry" />
        </mxCell>
        <mxCell id="JSDUIZoFdhttjqrRhheN-22" value="GlueProgram" style="rounded=1;whiteSpace=wrap;html=1;" vertex="1" parent="WIyWlLk6GJQsqaUBKTNV-1">
          <mxGeometry x="407" y="455" width="120" height="60" as="geometry" />
        </mxCell>
        <mxCell id="JSDUIZoFdhttjqrRhheN-24" value="GlueCanvas (WebGlConvas)" style="rounded=1;whiteSpace=wrap;html=1;" vertex="1" parent="WIyWlLk6GJQsqaUBKTNV-1">
          <mxGeometry x="178" y="645" width="349" height="60" as="geometry" />
        </mxCell>
        <mxCell id="JSDUIZoFdhttjqrRhheN-27" style="edgeStyle=orthogonalEdgeStyle;rounded=0;orthogonalLoop=1;jettySize=auto;html=1;exitX=0.5;exitY=1;exitDx=0;exitDy=0;" edge="1" parent="WIyWlLk6GJQsqaUBKTNV-1" source="JSDUIZoFdhttjqrRhheN-25" target="JSDUIZoFdhttjqrRhheN-21">
          <mxGeometry relative="1" as="geometry" />
        </mxCell>
        <mxCell id="JSDUIZoFdhttjqrRhheN-28" style="edgeStyle=orthogonalEdgeStyle;rounded=0;orthogonalLoop=1;jettySize=auto;html=1;exitX=0.5;exitY=1;exitDx=0;exitDy=0;" edge="1" parent="WIyWlLk6GJQsqaUBKTNV-1" source="JSDUIZoFdhttjqrRhheN-25" target="JSDUIZoFdhttjqrRhheN-22">
          <mxGeometry relative="1" as="geometry" />
        </mxCell>
        <mxCell id="JSDUIZoFdhttjqrRhheN-25" value="Glue&lt;br&gt;(Binds texture, effects to webgl canvas)" style="rounded=1;whiteSpace=wrap;html=1;" vertex="1" parent="WIyWlLk6GJQsqaUBKTNV-1">
          <mxGeometry x="287" y="320" width="120" height="60" as="geometry" />
        </mxCell>
        <mxCell id="JSDUIZoFdhttjqrRhheN-38" style="edgeStyle=orthogonalEdgeStyle;rounded=0;orthogonalLoop=1;jettySize=auto;html=1;exitX=0.5;exitY=1;exitDx=0;exitDy=0;fontSize=15;" edge="1" parent="WIyWlLk6GJQsqaUBKTNV-1" source="JSDUIZoFdhttjqrRhheN-35" target="JSDUIZoFdhttjqrRhheN-37">
          <mxGeometry relative="1" as="geometry" />
        </mxCell>
        <mxCell id="JSDUIZoFdhttjqrRhheN-40" style="edgeStyle=orthogonalEdgeStyle;rounded=0;orthogonalLoop=1;jettySize=auto;html=1;exitX=0;exitY=0.5;exitDx=0;exitDy=0;entryX=0.5;entryY=0;entryDx=0;entryDy=0;fontSize=15;" edge="1" parent="WIyWlLk6GJQsqaUBKTNV-1" source="JSDUIZoFdhttjqrRhheN-35" target="JSDUIZoFdhttjqrRhheN-10">
          <mxGeometry relative="1" as="geometry">
            <Array as="points">
              <mxPoint x="640" y="810" />
              <mxPoint x="640" y="70" />
              <mxPoint x="354" y="70" />
            </Array>
          </mxGeometry>
        </mxCell>
        <mxCell id="JSDUIZoFdhttjqrRhheN-35" value="Render" style="rounded=1;whiteSpace=wrap;html=1;" vertex="1" parent="WIyWlLk6GJQsqaUBKTNV-1">
          <mxGeometry x="300" y="780" width="120" height="60" as="geometry" />
        </mxCell>
        <mxCell id="JSDUIZoFdhttjqrRhheN-37" value="Export" style="rounded=1;whiteSpace=wrap;html=1;" vertex="1" parent="WIyWlLk6GJQsqaUBKTNV-1">
          <mxGeometry x="300" y="900" width="120" height="60" as="geometry" />
        </mxCell>
        <mxCell id="JSDUIZoFdhttjqrRhheN-39" value="WebGL-based shadar processing/effects library." style="text;html=1;align=center;verticalAlign=middle;resizable=0;points=[];autosize=1;strokeColor=none;fillColor=none;fontSize=15;" vertex="1" parent="WIyWlLk6GJQsqaUBKTNV-1">
          <mxGeometry x="182.5" y="720" width="340" height="30" as="geometry" />
        </mxCell>
      </root>
    </mxGraphModel>
  </diagram>
</mxfile>
